<svg width="24" height="24" viewBox="0 0 24 24" fill="none" xmlns="http://www.w3.org/2000/svg">
<path fill-rule="evenodd" clip-rule="evenodd" d="M19.5721 5.13562C19.9627 5.52616 19.9627 6.15936 19.5721 6.54988L13.9152 12.206C13.5246 12.5965 13.5246 13.2297 13.9152 13.6202L15.3301 15.0352L9.67293 20.6923C9.2824 21.0828 8.64924 21.0828 8.25871 20.6923L3.30872 15.7423C2.91818 15.3518 2.9182 14.7186 3.30878 14.328L8.96582 8.67188L10.3801 10.0855C10.7705 10.4757 11.4034 10.4758 11.7939 10.0855L12.501 9.37891L11.0869 7.96484L12.501 6.5498L13.2072 7.25652C13.5976 7.64718 14.2308 7.64739 14.6214 7.257L15.3291 6.5498L13.915 5.13574L15.3291 3.72168L16.0363 4.42888C16.4267 4.81931 17.0597 4.81942 17.4503 4.42912L18.1582 3.72168L19.5721 5.13562ZM6.84375 15.0352L8.96484 17.1572L10.3792 15.7423C10.7695 15.3517 10.7695 14.7187 10.379 14.3282L9.67195 13.6212C9.28143 13.2306 8.64826 13.2306 8.25774 13.6212L6.84375 15.0352Z" fill="black"/>
</svg>
