<svg width="24" height="24" viewBox="0 0 24 24" fill="none" xmlns="http://www.w3.org/2000/svg">
<path fill-rule="evenodd" clip-rule="evenodd" d="M13.8699 6.66895C14.1095 6.74786 14.3422 6.84098 14.5666 6.94826L17.6562 4.92871L19.0703 6.34277L17.2102 9.51155C17.321 9.72915 17.418 9.95437 17.4995 10.1867L21 11V13L17.4995 13.8123C17.418 14.0447 17.321 14.2698 17.2102 14.4875L19.0703 17.6572L17.6562 19.0713L14.5666 17.0508C14.3421 17.1581 14.1095 17.2511 13.8699 17.3301L13 21H11L10.1291 17.3301C9.88904 17.2509 9.65613 17.1573 9.43133 17.0497L6.34277 19.0713L4.92871 17.6572L6.7877 14.4875C6.67701 14.27 6.58093 14.0445 6.49951 13.8123L3 13V11L6.49951 10.1867C6.58097 9.95456 6.67698 9.72898 6.7877 9.51155L4.92871 6.34277L6.34277 4.92871L9.43133 6.94936C9.6561 6.84177 9.88907 6.74805 10.1291 6.66895L11 3H13L13.8699 6.66895ZM12 10C10.8954 10 10 10.8954 10 12C10 13.1046 10.8954 14 12 14C13.1046 14 14 13.1046 14 12C14 10.8954 13.1046 10 12 10Z" fill="black"/>
</svg>
