<svg width="50" height="50" viewBox="0 0 50 50" fill="none" xmlns="http://www.w3.org/2000/svg">
<path fill-rule="evenodd" clip-rule="evenodd" d="M28.8956 13.8936C29.3948 14.058 29.8795 14.252 30.347 14.4755L36.7839 10.2681L39.7298 13.2141L35.8546 19.8157C36.0855 20.2691 36.2874 20.7383 36.4573 21.2224L43.75 22.9167V27.0833L36.4573 28.7756C36.2875 29.2598 36.0854 29.7288 35.8546 30.1822L39.7298 36.7859L36.7839 39.7319L30.347 35.5224C29.8795 35.746 29.3949 35.9399 28.8956 36.1043L27.0833 43.75H22.9167L21.1023 36.1043C20.6022 35.9395 20.1169 35.7444 19.6486 35.5201L13.2141 39.7319L10.2681 36.7859L14.141 30.1822C13.9104 29.7292 13.7103 29.2594 13.5406 28.7756L6.25 27.0833V22.9167L13.5406 21.2224C13.7104 20.7387 13.9104 20.2687 14.141 19.8157L10.2681 13.2141L13.2141 10.2681L19.6486 14.4778C20.1169 14.2537 20.6022 14.0584 21.1023 13.8936L22.9167 6.25H27.0833L28.8956 13.8936ZM25 20.8333C22.6988 20.8333 20.8333 22.6988 20.8333 25C20.8333 27.3012 22.6988 29.1667 25 29.1667C27.3012 29.1667 29.1667 27.3012 29.1667 25C29.1667 22.6988 27.3012 20.8333 25 20.8333Z" fill="white"/>
</svg>
