<svg width="24" height="24" viewBox="0 0 24 24" fill="none" xmlns="http://www.w3.org/2000/svg">
<path d="M10 20C10 20.5523 9.55228 21 9 21H6V17H9C9.55228 17 10 17.4477 10 18V20Z" fill="#181818"/>
<path d="M18 21H15C14.4477 21 14 20.5523 14 20V18C14 17.4477 14.4477 17 15 17H18V21Z" fill="#181818"/>
<path d="M10 13C10 13.5523 9.55228 14 9 14H6V10H9C9.55228 10 10 10.4477 10 11V13Z" fill="#181818"/>
<path d="M18 14H15C14.4477 14 14 13.5523 14 13V11C14 10.4477 14.4477 10 15 10H18V14Z" fill="#181818"/>
<path d="M10 6C10 6.55228 9.55228 7 9 7H6V3H9C9.55228 3 10 3.44772 10 4V6Z" fill="#181818"/>
<path d="M18 7H15C14.4477 7 14 6.55228 14 6V4C14 3.44772 14.4477 3 15 3H18V7Z" fill="#181818"/>
</svg>
