<svg width="24" height="24" viewBox="0 0 24 24" fill="none" xmlns="http://www.w3.org/2000/svg">
<path d="M10 18C10 18.5523 9.55228 19 9 19H6V15H9C9.55228 15 10 15.4477 10 16V18Z" fill="#181818"/>
<path d="M18 19H15C14.4477 19 14 18.5523 14 18V16C14 15.4477 14.4477 15 15 15H18V19Z" fill="#181818"/>
<path d="M10 13C10 13.5523 9.55228 14 9 14H6V10H9C9.55228 10 10 10.4477 10 11V13Z" fill="#181818"/>
<path d="M18 14H15C14.4477 14 14 13.5523 14 13V11C14 10.4477 14.4477 10 15 10H18V14Z" fill="#181818"/>
<path d="M10 8C10 8.55228 9.55228 9 9 9H6V5H9C9.55228 5 10 5.44772 10 6V8Z" fill="#181818"/>
<path d="M18 9H15C14.4477 9 14 8.55228 14 8V6C14 5.44772 14.4477 5 15 5H18V9Z" fill="#181818"/>
</svg>
