<svg width="24" height="24" viewBox="0 0 24 24" fill="none" xmlns="http://www.w3.org/2000/svg">
<path d="M11 20C11 20.5523 10.5523 21 10 21H7V17H10C10.5523 17 11 17.4477 11 18V20Z" fill="#181818"/>
<path d="M17 21H14C13.4477 21 13 20.5523 13 20V18C13 17.4477 13.4477 17 14 17H17V21Z" fill="#181818"/>
<path d="M11 13C11 13.5523 10.5523 14 10 14H7V10H10C10.5523 10 11 10.4477 11 11V13Z" fill="#181818"/>
<path d="M17 14H14C13.4477 14 13 13.5523 13 13V11C13 10.4477 13.4477 10 14 10H17V14Z" fill="#181818"/>
<path d="M11 6C11 6.55228 10.5523 7 10 7H7V3H10C10.5523 3 11 3.44772 11 4V6Z" fill="#181818"/>
<path d="M17 7H14C13.4477 7 13 6.55228 13 6V4C13 3.44772 13.4477 3 14 3H17V7Z" fill="#181818"/>
</svg>
