<svg width="28" height="48" viewBox="0 0 28 48" fill="none" xmlns="http://www.w3.org/2000/svg">
<path d="M11 40.9999L21 45.4999L21.8048 34.4999C21.8048 34.4999 17.5 26.4999 17.5 24.9999C17.5 23.4999 21.8048 16.4073 21.8048 16.4073C21.8048 16.4073 25.6966 10.5178 23.7772 7.76956C21.8578 5.02132 17.5304 2.55162 15 3.99984C12.4696 5.44806 10.0264 9.81045 10.0264 9.81045C10.0264 9.81045 4.00001 21.4999 4 24.9999C3.99999 28.4999 11 40.9999 11 40.9999Z" stroke="white" stroke-width="2" stroke-linecap="round" stroke-linejoin="round"/>
<path d="M10 11L21 17" stroke="white" stroke-width="2" stroke-linecap="round" stroke-linejoin="round"/>
<path d="M13 36C13 36 8.5 27 8.5 25C8.5 23 13.5 13.5 13.5 13.5" stroke="white" stroke-width="2" stroke-linecap="round" stroke-linejoin="round"/>
<path d="M17 33.5C17 33.5 13 26 13 25C13 24 17.5 15.5 17.5 15.5" stroke="white" stroke-width="2" stroke-linecap="round" stroke-linejoin="round"/>
<path d="M16.998 42.998L20.5 40.4999L20.5 43.9999L19 42.9999" stroke="white" stroke-width="2" stroke-linecap="round" stroke-linejoin="round"/>
</svg>
