<svg width="28" height="48" viewBox="0 0 28 48" fill="none" xmlns="http://www.w3.org/2000/svg">
<path d="M5.93579 37L12.5 46L19.4282 37V28.5V12.6735C19.4282 12.6735 19.718 5.62017 16.6548 4.25861C13.5916 2.89706 8.61054 3.01795 7.19211 5.56513C5.77368 8.11231 5.93525 13.1097 5.93525 13.1097C5.93525 13.1097 5.9358 21.4997 5.93579 24.9997V37Z" stroke="white" stroke-width="2" stroke-linecap="round" stroke-linejoin="round"/>
<path d="M6.85352 12.3848L19.3835 12.3686" stroke="white" stroke-width="2" stroke-linecap="round" stroke-linejoin="round"/>
<path d="M10.4852 34.0003C10.4852 34.0003 10.4855 26.3738 10.4853 24.5003C10.4851 22.6268 10.4853 12.8982 10.4853 12.8982" stroke="white" stroke-width="2" stroke-linecap="round" stroke-linejoin="round"/>
<path d="M14.9553 33.9998C14.9553 33.9998 14.955 24.9998 14.955 22.7878C14.955 20.5757 14.955 12.7323 14.955 12.7323" stroke="white" stroke-width="2" stroke-linecap="round" stroke-linejoin="round"/>
<path d="M11 42L15.3005 42.1026L13.2005 44.9026L12.6005 43.2026" stroke="white" stroke-width="2" stroke-linecap="round" stroke-linejoin="round"/>
</svg>
